<?xml version="1.0" encoding="UTF-8" standalone="no"?>
<!-- Created with Inkscape (http://www.inkscape.org/) -->

<svg
   xmlns:dc="http://purl.org/dc/elements/1.1/"
   xmlns:cc="http://creativecommons.org/ns#"
   xmlns:rdf="http://www.w3.org/1999/02/22-rdf-syntax-ns#"
   xmlns:svg="http://www.w3.org/2000/svg"
   xmlns="http://www.w3.org/2000/svg"
   xmlns:sodipodi="http://sodipodi.sourceforge.net/DTD/sodipodi-0.dtd"
   xmlns:inkscape="http://www.inkscape.org/namespaces/inkscape"
   width="744.09448819"
   height="1052.3622047"
   id="svg2"
   version="1.1"
   inkscape:version="0.47 r22583"
   sodipodi:docname="VUE.svg">
  <defs
     id="defs4">
    <inkscape:perspective
       sodipodi:type="inkscape:persp3d"
       inkscape:vp_x="0 : 526.18109 : 1"
       inkscape:vp_y="0 : 1000 : 0"
       inkscape:vp_z="744.09448 : 526.18109 : 1"
       inkscape:persp3d-origin="372.04724 : 350.78739 : 1"
       id="perspective10" />
    <filter
       inkscape:collect="always"
       id="filter3700">
      <feGaussianBlur
         inkscape:collect="always"
         stdDeviation="2.2359232"
         id="feGaussianBlur3702" />
    </filter>
  </defs>
  <sodipodi:namedview
     id="base"
     pagecolor="#ffffff"
     bordercolor="#666666"
     borderopacity="1.0"
     inkscape:pageopacity="0.0"
     inkscape:pageshadow="2"
     inkscape:zoom="0.49497475"
     inkscape:cx="196.203"
     inkscape:cy="612.39251"
     inkscape:document-units="px"
     inkscape:current-layer="layer1"
     showgrid="false"
     showguides="true"
     inkscape:guide-bbox="true"
     inkscape:window-width="1920"
     inkscape:window-height="1005"
     inkscape:window-x="0"
     inkscape:window-y="24"
     inkscape:window-maximized="1" />
  <metadata
     id="metadata7">
    <rdf:RDF>
      <cc:Work
         rdf:about="">
        <dc:format>image/svg+xml</dc:format>
        <dc:type
           rdf:resource="http://purl.org/dc/dcmitype/StillImage" />
        <dc:title />
      </cc:Work>
    </rdf:RDF>
  </metadata>
  <g
     inkscape:label="Layer 1"
     inkscape:groupmode="layer"
     id="layer1">
    <path
       sodipodi:type="arc"
       style="fill:#ff00ff;fill-rule:evenodd;stroke:#000000;stroke-width:1px;stroke-linecap:butt;stroke-linejoin:miter;stroke-opacity:1"
       id="path2822"
       sodipodi:cx="588.57141"
       sodipodi:cy="500.93362"
       sodipodi:rx="160"
       sodipodi:ry="105.71429"
       d="m 748.57141,500.93362 a 160,105.71429 0 1 1 -320,0 160,105.71429 0 1 1 320,0 z"
       transform="matrix(2.1016156,0,0,2.0698344,-732.59338,-744.41566)" />
    <path
       sodipodi:type="arc"
       style="fill:#ffff00;fill-rule:evenodd;stroke:#000000;stroke-width:1px;stroke-linecap:butt;stroke-linejoin:miter;stroke-opacity:1;opacity:0.64788732"
       id="path2820"
       sodipodi:cx="198.57143"
       sodipodi:cy="352.36218"
       sodipodi:rx="161.42857"
       sodipodi:ry="102.85714"
       d="m 360,352.36218 a 161.42857,102.85714 0 1 1 -322.857147,0 161.42857,102.85714 0 1 1 322.857147,0 z"
       transform="matrix(2.5784783,0,0,2.1608011,-220.49432,-287.67794)" />
    <path
       sodipodi:type="arc"
       style="fill:#00ffff;fill-rule:evenodd;stroke:#000000;stroke-width:1px;stroke-linecap:butt;stroke-linejoin:miter;stroke-opacity:1;opacity:0.47887324"
       id="path2826"
       sodipodi:cx="422.85715"
       sodipodi:cy="773.79077"
       sodipodi:rx="160"
       sodipodi:ry="81.428574"
       d="m 582.85715,773.79077 a 160,81.428574 0 1 1 -320,0 160,81.428574 0 1 1 320,0 z"
       transform="matrix(2.4760806,-0.04245734,0.02669378,3.2191104,-619.67436,-1802.3601)" />
    <path
       style="fill:#000080;filter:url(#filter3700)"
       id="path2878"
       d="m 342.77812,569.38862 c 7.92817,0.0765 15.85558,0.21678 23.78306,0.36347 3.77089,0.89852 7.42878,2.1805 11.24444,2.78073 2.6105,1.34626 4.92951,3.10993 7.21155,5.12375 1.42768,1.78085 3.24282,3.01032 4.66972,4.68124 2.03074,2.12458 3.30799,4.85601 4.667,7.587 1.4124,3.01721 3.11293,5.8194 4.30471,8.98554 0.8546,3.22117 1.95332,6.32892 2.79727,9.55986 1.2018,3.20098 2.32466,6.39066 3.03628,9.8055 0.69017,2.88238 2.1658,5.32802 3.34308,7.93881 0.99436,3.37581 2.41682,6.51875 3.33316,9.92471 0.59683,3.72466 1.78479,7.22878 2.54199,10.90395 0.82985,4.10204 1.03468,8.32961 1.14096,12.53346 -0.0496,3.94724 1.08915,7.70044 1.68147,11.54469 0.48366,3.26644 0.69924,6.57833 0.81768,9.88929 -0.26723,3.60655 0.66241,6.97856 1.29218,10.44987 0.38871,4.69405 1.74344,9.1439 2.69738,13.6897 0.64645,2.39891 0.49958,4.99243 1.28322,7.32574 0.89654,2.96473 1.57526,5.97028 2.67201,8.84478 1.42206,2.68999 2.68741,5.52266 4.52969,7.83839 1.85656,2.8374 4.22995,5.05133 6.15495,7.82578 2.10993,2.07045 4.32233,3.69612 6.29663,6.00793 1.44375,2.20538 2.90118,2.92771 5.11271,3.24087 1.35925,1.27393 1.89704,-1.55173 1.34153,-1.18524 -48.57139,32.04458 -32.34838,34.18276 -29.73788,18.60219 0.35313,-4.31712 0.2405,-8.66965 0.16915,-13.0007 -0.0519,-3.60879 -0.0752,-7.21797 -0.0786,-10.82729 -0.29682,-3.50009 0.31324,-6.73334 1.23573,-10.01534 0.67548,-4.09308 1.55039,-8.11302 2.44276,-12.14721 0.74211,-3.17074 1.00316,-6.46324 1.13288,-9.74202 0.10568,-3.09025 0.0829,-6.18434 0.087,-9.27651 0.0264,-3.37667 -0.031,-6.75323 -0.0298,-10.12974 -0.006,-2.74023 -0.0122,-5.48067 4.2e-4,-8.22092 -0.26803,-4.38028 0.57888,-8.58221 1.3547,-12.81562 0.73678,-3.88696 2.2292,-7.44993 2.9273,-11.35135 0.64644,-3.63156 0.36948,-7.36576 1.05313,-10.98261 0.66437,-2.22742 1.37648,-4.42067 1.7537,-6.7453 0.34754,-3.03584 0.0385,-6.10051 0.70523,-9.07078 0.79271,-2.5199 1.4396,-5.07182 1.79137,-7.73372 0.97246,-2.46031 1.84563,-4.91333 2.26082,-7.59976 0.25772,-2.74373 0.36143,-5.38223 1.23896,-7.96375 0.90209,-3.78082 1.75276,-7.50568 3.3262,-10.98368 1.5322,-3.37471 3.11421,-6.77153 5.01235,-9.86798 1.53576,-2.85044 2.88728,-5.82494 4.24589,-8.80758 1.50193,-3.24392 3.15279,-6.42018 4.54802,-9.73399 0.50077,-1.18722 0.84442,-2.4577 1.29727,-3.66834 8.82844,8.41246 32.87256,-33.79413 32.82495,-15.90237 -0.0219,2.68561 -0.0136,5.37149 -0.0191,8.05724 0.0271,3.25956 -0.004,6.51921 0.007,9.77877 -0.0109,3.52392 -0.0219,7.04793 0.0151,10.57167 -0.0124,2.55747 0.0214,5.11505 0.01,7.67242 -0.0247,3.29484 -0.0219,6.58984 -0.0303,9.88479 0.0661,3.35196 -0.27309,6.71341 0.45818,9.98022 0.92273,3.32316 1.29533,6.7796 2.23453,10.09081 1.01622,2.65005 2.23771,5.36625 3.62281,7.78518 1.61481,1.97128 2.08744,4.73516 3.40296,6.92782 1.21847,2.27365 1.65256,4.90054 2.67927,7.27294 1.14297,2.79637 2.92298,5.09585 4.65032,7.38014 1.97687,2.69745 4.71234,4.35819 6.78696,6.91173 1.73965,2.50947 3.46045,5.03232 5.28399,7.45577 1.67619,2.62327 4.09719,3.83181 6.50526,5.25748 2.58622,0.86207 4.74062,2.39008 7.10422,3.87029 2.09687,0.98694 4.27826,0.54143 6.27292,1.69258 2.08484,1.12159 4.21831,1.75987 6.46564,2.134 2.06029,-0.39437 3.42073,1.26736 5.28162,1.9862 2.1506,0.8581 4.46039,0.90253 6.70794,0.94913 3.44034,0.0554 6.88092,0.031 10.32142,0.0305 3.27193,1.27817 6.62359,2.11855 10.02904,2.65382 1.77441,-0.24896 3.91576,0.84023 5.6607,0.2693 0.8266,-0.27045 1.517,-0.97395 2.32484,-1.31662 2.0715,-1.65148 5.05073,-0.58515 6.84597,-2.44406 2.29252,-1.74964 5.11546,-1.35501 7.47131,-2.71504 -1.08254,1.57938 5.72011,-3.53583 3.98957,-2.3587 -10.0804,6.85678 -39.88932,28.30487 -30.11721,20.83134 22.86009,-17.48298 21.30286,-16.58914 33.46098,-23.14121 -55.61945,36.43558 -34.31998,26.30325 -24.22539,15.56075 10.47205,-11.19728 22.95188,-20.68387 36.37405,-25.581 0.10617,-0.0252 0.41208,-0.14054 0.31841,-0.0755 -45.48981,31.58912 -35.92079,29.2872 -26.89437,15.96498 2.01345,-3.06671 3.99093,-6.10727 5.72079,-9.41503 1.54944,-3.84246 3.07066,-7.70002 4.57652,-11.56917 1.31917,-2.61199 2.38318,-5.2844 3.85732,-7.76387 1.78846,-3.50741 2.87515,-7.38509 4.28603,-11.09911 1.04465,-3.24196 2.27672,-6.3476 3.52706,-9.4779 1.05915,-2.12768 1.29635,-4.56124 1.41463,-6.98596 0.33491,-3.10516 -0.0946,-5.94927 -0.79185,-8.91597 -0.82785,-3.62732 -1.22472,-7.34988 -1.47051,-11.08947 0.16654,-3.33195 -0.72293,-6.40573 -1.40361,-9.57672 -0.37949,-3.23187 -1.65646,-6.13937 -2.6313,-9.15144 -1.21068,-2.50396 -2.26588,-5.1113 -3.29792,-7.73099 -1.58808,-3.18922 -4.12727,-5.28617 -6.30156,-7.84422 -2.21253,-2.22882 -4.57003,-4.23675 -6.87603,-6.35235 -2.42041,-1.31933 -4.544,-3.11752 -7.03941,-4.23829 -2.50252,0.0754 -4.32615,-1.69073 -6.55662,-2.61227 -0.3371,-0.13369 -0.65841,-0.44708 -1.01129,-0.40096 -0.5385,0.0704 -0.83605,0.84557 -1.31852,1.14146 -0.94556,0.57987 -1.94319,0.70112 -2.97276,0.95133 -0.29662,0.0725 -0.62519,0.0407 -0.88987,0.21719 -0.60628,0.40417 -2.17568,2.04747 -1.57335,1.63487 38.01595,-26.04092 37.57023,-28.85213 27.39848,-18.01465 -1.68102,2.04909 -3.78071,3.64213 -5.2808,5.88522 -1.46742,2.61233 -2.81286,5.16021 -3.59585,8.18179 -1.29971,2.74255 -1.89077,5.85253 -3.40328,8.43829 -1.32789,2.48086 -1.67347,5.41744 -1.87215,8.29835 -0.15923,2.93533 -0.14913,5.88077 -0.13079,8.82107 0.0219,3.39045 -0.0155,6.78085 -0.002,10.1713 0.28832,3.93094 1.61996,7.62811 2.9873,11.17267 1.93702,4.53009 4.39007,8.70762 6.42932,13.16665 1.96288,2.95462 3.04825,6.7745 5.47289,9.25331 2.00496,3.00527 4.57024,4.93356 7.27545,6.874 3.0386,1.96272 5.89599,4.09736 9.17827,5.45084 2.77057,1.0006 5.28783,2.64144 8.15357,3.43329 2.19984,0.86847 4.01633,2.49174 6.38175,2.93025 3.06919,0.37783 6.15674,0.35307 9.2381,0.37678 3.7077,-6.6e-4 7.41534,-0.0185 11.123,-0.0288 2.50665,-0.0394 5.01346,-0.0308 7.52022,-0.0423 0.39796,0.001 0.81581,0.15456 1.19385,0.006 0.3389,-0.13398 0.52542,-0.59074 0.83374,-0.80643 1.55864,-1.09042 3.3281,-1.29177 4.89988,-2.33545 3.6148,-0.80593 6.78315,-2.95848 10.21544,-4.35261 31.34444,-20.43032 -97.02681,66.43401 9.12621,-5.71793 -48.09417,32.98942 -31.67564,21.79269 2.89028,-2.1979 9.83182,-6.8238 -19.66611,13.64253 -29.51355,20.43371 -0.52223,0.36015 1.0287,-0.75252 1.53715,-1.14011 1.84655,-1.40767 1.40021,-1.06844 3.13206,-2.62961 2.18313,-2.57234 4.20692,-5.38812 5.64434,-8.64278 0.92856,-2.8051 1.94696,-5.57759 3.22399,-8.20488 1.52133,-2.93752 3.019,-5.93011 4.14616,-9.12265 0.34345,-1.28628 0.94208,-2.40638 1.06441,-3.74376 -0.34483,-2.47785 3.10712,0.33082 -1.64659,1.90747 0,0 29.22566,-26.09523 29.22566,-26.09523 l 0,0 c 2.46271,0.0612 5.29176,0.67729 5.12766,4.40105 -4.3e-4,1.7923 0.0856,3.42091 -0.62332,5.08249 -1.06376,3.48376 -2.40665,6.69002 -3.85693,9.94174 -1.4123,2.32506 -2.88741,4.8811 -3.41798,7.62251 -1.28684,3.77464 -2.93981,7.0869 -5.2172,10.14532 -1.29067,1.92646 -2.57152,3.4143 -4.36497,4.67353 -10.92431,7.67024 -21.96636,15.09914 -32.83209,22.88861 -0.99161,0.71087 85.34754,-59.28237 -3.06928,1.92965 9.90623,-6.87049 19.81955,-13.72621 29.71867,-20.61144 0.47719,-0.33192 -0.97386,0.62204 -1.45241,0.95108 -10.90533,7.498 -21.78753,15.04457 -32.69893,22.5298 -1.53815,1.05517 -3.17975,1.90004 -4.83527,2.64519 -3.32462,1.74501 -6.86493,2.66293 -10.18446,4.43087 -2.62357,0.90629 -5.0221,2.35173 -7.82983,1.828 -2.48088,-0.009 -4.96178,0.007 -7.44265,-0.0179 -3.71148,0.007 -7.42345,0.0271 -11.13463,-0.0377 -3.30424,-0.071 -6.65426,-0.10314 -9.85441,-1.22157 -2.15473,-0.96244 -4.13177,-2.39612 -6.39503,-2.96813 -2.819,-1.13087 -5.45937,-2.7882 -8.31208,-3.81102 -3.28882,-1.71685 -6.34638,-3.98444 -9.47399,-6.07971 -2.93769,-2.0911 -5.50631,-4.68544 -7.79892,-7.7344 -2.39404,-3.12679 -3.98577,-6.89949 -5.95572,-10.40573 -2.0334,-4.5514 -4.57017,-8.75868 -6.50784,-13.37436 -1.67748,-4.10406 -3.10357,-8.33415 -3.82269,-12.84561 0.007,-3.37751 -0.0368,-6.75481 -0.0406,-10.13231 0.001,-3.03111 -0.0333,-6.06233 0.0235,-9.09312 0.13781,-3.39213 0.32888,-6.77727 1.18283,-10.0413 0.51942,-1.43031 1.48368,-2.20459 2.01594,-3.53415 0.58355,-1.45769 0.62772,-3.34514 1.47249,-4.70669 1.5749,-2.46244 1.29834,-6.32328 3.43961,-8.54078 1.15378,-2.9653 2.71418,-5.11343 4.90961,-7.11088 10.94148,-11.76755 23.43669,-23.85254 37.94057,-26.96732 2.42036,-0.70496 4.28949,-1.18153 6.57732,0.49561 2.13486,1.20425 4.40632,1.56888 6.58188,2.67974 2.59208,1.50466 5.0888,3.2919 7.50969,5.15492 2.40969,2.20884 4.86583,4.33701 7.09384,6.81867 2.47744,2.90106 5.30041,5.40616 6.95981,9.1664 1.09817,2.73362 2.2463,5.42698 3.52419,8.0464 0.92546,3.20855 2.33809,6.24681 2.76621,9.61695 0.66759,3.42311 1.94866,6.69224 1.73867,10.26573 0.11682,3.45532 0.3606,6.90796 1.0756,10.27042 0.79427,3.36531 1.753,6.55261 1.37882,10.11662 -0.0604,2.89527 -0.0789,5.80609 -0.77254,8.6085 -1.27798,3.1547 -2.73958,6.06617 -3.65201,9.38571 -0.44268,1.23772 -1.09382,2.36098 -1.50551,3.61407 -0.84355,2.56761 -1.15918,5.37639 -2.6733,7.61884 -0.29435,1.04555 -0.4983,2.17894 -1.13731,3.03498 -0.2253,0.30183 -0.63174,0.36548 -0.83319,0.69074 -0.78289,1.26407 -0.63271,3.291 -1.8025,4.30649 -2.03845,3.43549 -3.2447,7.68374 -4.67396,11.48354 -1.41356,3.68918 -3.21792,6.95572 -5.42975,10.02259 -0.53931,0.90414 -0.90168,1.96119 -1.50564,2.80424 -8.64186,12.06308 -31.6217,1.6572 -34.17502,25.93644 -14.05721,10.10327 42.3308,-28.69228 26.11684,-18.33672 -11.22754,12.87606 -21.22952,19.4162 -38.03901,28.51311 -9.65047,6.8286 38.73918,-27.03219 29.05294,-20.27715 -13.47556,9.39765 -23.11092,19.42379 -36.73042,24.33156 -2.58873,0.57429 -4.95856,1.73997 -7.38524,2.94116 -2.44568,0.21162 -4.66389,1.36146 -7.02454,2.0895 -2.9208,0.72297 -5.97351,-0.0404 -8.90719,-0.45784 -3.2134,-0.71845 -6.37753,-1.98445 -9.65034,-2.12634 -3.50405,0.007 -7.01277,0.0361 -10.51269,-0.18941 -2.52131,-0.29745 -5.02051,-0.79817 -7.35605,-2.04139 -1.6677,-0.87129 -3.18801,-0.89838 -4.95886,-1.3346 -2.26483,-0.67643 -4.41349,-1.74567 -6.64579,-2.55399 -2.3557,-0.17585 -4.58997,-1.03916 -6.66973,-2.377 -2.29227,-1.49731 -4.74369,-2.42245 -7.05061,-3.89846 -2.69175,-1.81845 -5.37367,-3.48738 -7.24648,-6.57105 -1.70058,-2.37569 -3.37051,-4.78272 -5.09907,-7.12799 -2.32858,-2.35401 -4.89441,-4.41814 -6.89313,-7.21261 -1.93947,-2.55002 -3.87804,-5.18518 -5.17982,-8.29191 -1.00739,-2.25126 -1.52693,-4.55687 -2.47307,-6.82722 -1.26469,-2.28837 -1.91213,-4.89391 -3.40738,-7.0068 -1.50031,-2.77776 -2.94008,-5.74294 -4.04036,-8.76046 -1.01083,-3.38865 -1.54314,-6.80861 -2.34052,-10.27578 -0.9573,-3.67378 -1.12434,-7.24758 -0.93458,-11.09424 -0.008,-3.28261 -0.006,-6.56527 -0.0303,-9.84776 -0.0122,-2.56122 0.0217,-5.12263 0.01,-7.68394 0.0368,-3.52944 0.0274,-7.05916 0.0148,-10.58876 0.01,-3.25564 -0.0225,-6.51127 -0.008,-9.76693 -0.0168,-2.687 -0.0331,-5.37386 -0.0593,-8.06075 0.16252,-15.61279 29.94572,-38.82779 32.88251,-22.95105 -0.24895,1.50842 -0.735,2.93915 -1.20028,4.36873 -1.2306,3.60758 -3.06311,6.70652 -4.3592,10.2809 -1.69817,2.8016 -2.87012,5.89732 -4.22082,8.90279 -1.61053,3.25107 -3.68141,6.12993 -5.17032,9.5208 -1.48831,3.34466 -3.27927,6.383 -3.49878,10.33041 -0.63811,2.52838 -1.86838,4.35987 -1.53142,7.19602 -0.28594,2.98561 -0.60114,5.94926 -1.83928,8.62108 -1.5314,1.65743 -0.64208,5.35572 -1.94785,7.41882 -0.26435,0.76597 -0.79191,1.40086 -0.95673,2.2061 -0.388,1.89575 0.29798,4.07405 -0.0644,5.99774 -0.0883,2.69086 -0.51633,5.20402 -1.39975,7.69403 -1.47381,3.25035 -1.00338,6.75215 -1.33765,10.36889 -0.53755,3.98864 -1.2839,7.85116 -2.9579,11.41324 -0.58362,4.02721 -1.92381,7.87015 -1.59196,12.00724 0.0127,2.73824 0.006,5.47663 0.004,8.21486 0.006,3.38047 -0.0431,6.76116 -0.004,10.14167 0.0171,3.14046 0.0392,6.28092 0.0195,9.42141 -0.0985,3.5597 -0.29039,7.12799 -0.8387,10.63437 -0.88706,4.06015 -2.17135,7.97448 -2.38515,12.19307 -0.59652,3.08649 -2.09741,5.67637 -1.70091,8.93596 0.0121,3.59954 0.0168,7.1991 0.0467,10.79852 0.0189,4.49165 0.0958,8.98351 0.0505,13.47515 -0.60051,17.48607 -20.99651,33.83006 -34.37909,27.0115 -2.44066,-1.03375 -4.34884,-2.84151 -6.08172,-5.13279 -2.1214,-2.22445 -4.61917,-3.85424 -6.49685,-6.41832 -2.00987,-2.6345 -4.27053,-4.98166 -6.12439,-7.7823 -1.96274,-2.78104 -3.56893,-5.84672 -5.11935,-8.97546 -1.07613,-2.92072 -1.97599,-5.85865 -2.7312,-8.91406 -0.965,-2.63692 -1.26096,-5.17105 -1.53711,-8.02024 -0.81769,-4.62402 -2.25823,-9.08953 -2.70871,-13.79568 -0.61626,-3.70175 -1.88422,-7.27816 -1.68083,-11.10068 -0.0199,-3.13289 -0.11501,-6.27298 -0.4941,-9.37691 -0.53212,-4.07083 -1.81553,-7.997 -1.92546,-12.10832 -0.0645,-3.92609 -0.12253,-7.88253 -0.78822,-11.74237 -0.66068,-3.62879 -2.01756,-6.95267 -2.45554,-10.63519 -0.74257,-3.1867 -2.22665,-5.98168 -3.00311,-9.15883 -1.31206,-2.98051 -2.98893,-5.71295 -3.83953,-8.9708 -0.54399,-3.37508 -1.62498,-6.47026 -2.89082,-9.54826 -0.73349,-3.11195 -1.91913,-5.9732 -2.58913,-9.09174 -1.04545,-3.02439 -2.77977,-5.59135 -4.05786,-8.46793 -1.19777,-2.31927 -2.25005,-4.67307 -4.10969,-6.36766 -1.60723,-1.31205 -2.91372,-3.03869 -4.50215,-4.3826 -1.86752,-1.58353 -3.94048,-3.0321 -6.22696,-3.46099 -3.59796,-0.82222 -7.10903,-2.25651 -10.79396,-2.42168 -7.83794,-0.24796 -15.7013,-0.64653 -23.52891,0.0643 0,0 29.15434,-25.99278 29.15434,-25.99278 z" />
    <path
       style="fill:#0000ff;opacity:1"
       id="path2876"
       d="m 69.023917,344.66358 c 12.782867,0.92932 25.282099,3.66974 37.656383,7.5742 6.88525,2.88567 13.62135,5.86631 19.90149,10.30465 3.98296,4.31988 8.68316,7.15795 13.0427,10.72986 4.80969,2.97221 9.89085,5.10234 14.66384,8.2115 6.81118,3.83298 13.28191,8.69941 19.45008,13.92039 6.12786,5.66755 12.23221,11.37762 18.26727,17.20432 6.74469,7.24494 14.67807,12.49786 22.34312,18.08995 7.3617,4.11965 13.4075,10.78625 19.23858,17.51952 5.94175,7.32126 12.08474,14.42652 17.57111,22.27119 4.55228,7.30201 9.15246,14.55957 13.68753,21.87677 5.24277,7.29651 9.32961,15.50644 13.6309,23.63561 5.26109,11.08139 11.66748,21.18259 18.49381,30.85518 5.60369,8.49631 10.15958,17.95378 14.83171,27.23861 4.24932,8.66154 6.94678,18.14478 9.48224,27.69594 2.89624,11.55754 5.34915,23.26236 8.12341,34.86395 2.49069,10.90483 6.58118,21.00286 10.12078,31.40527 4.00344,10.58409 6.02937,21.81047 7.23664,33.30996 0.26595,9.25918 1.58117,18.31425 2.93599,27.3995 0.97897,9.01625 2.79845,17.83179 3.85007,26.83939 1.11011,7.9492 0.85476,16.031 1.43913,24.02934 1.07313,7.44168 1.74708,15.00113 3.03045,22.39329 1.62837,5.74016 2.70944,11.64221 3.28808,17.66974 -0.039,5.79857 1.35112,11.24223 2.37722,16.82944 1.95867,7.62906 3.4707,15.40321 5.07103,23.15322 2.22597,9.62915 5.4139,18.83786 7.94279,28.34498 1.32781,7.00837 3.367,13.74139 4.501,20.80166 2.00612,10.0891 3.20986,20.35749 5.14408,30.46392 0.97177,4.81191 1.98178,9.61475 3.13521,14.36669 5.5782,20.03673 -43.82055,49.80918 -46.47394,26.568 -0.80769,-6.46192 -3.05331,-12.18436 -5.40199,-17.95642 -3.61291,-7.52955 -6.57679,-15.42475 -9.45047,-23.40117 -3.08371,-8.52509 -5.89201,-17.17515 -8.61104,-25.88491 -2.36418,-7.44213 -3.28007,-15.34226 -4.85579,-23.04581 -1.61449,-7.23595 -2.38616,-14.62608 -2.75439,-22.09388 -0.33556,-7.87274 -0.25185,-15.75559 -0.23751,-23.63509 0.035,-10.65639 0.0897,-21.31254 0.0825,-31.96909 -0.0122,-10.83265 -0.0241,-21.66545 0.005,-32.49809 0.008,-11.36741 -0.0156,-22.73493 0.008,-34.10234 -0.30003,-10.6314 1.35299,-21.11961 2.3599,-31.63434 0.97695,-11.28809 1.05494,-22.65679 1.13986,-33.99672 -0.08,-11.60444 -0.13403,-23.1524 0.89358,-34.6971 1.46269,-9.31902 3.52287,-18.52909 5.8554,-27.57992 2.28638,-8.12705 3.03559,-16.63906 3.49882,-25.16091 0.35964,-9.81895 0.27142,-19.65072 0.30272,-29.4765 -0.1458,-10.32829 1.19441,-20.61838 2.70128,-30.7532 2.40002,-11.66232 3.35787,-23.57368 3.91951,-35.54614 0.297,-14.63546 1.79523,-29.19241 3.82465,-43.60364 1.74543,-11.5029 5.06983,-22.43401 8.85259,-33.12395 3.74968,-11.46196 6.45906,-23.36382 9.32091,-35.1862 4.43966,-16.24811 9.80921,-32.09278 15.21902,-47.88394 4.33582,-12.45076 8.46782,-25.00314 12.47641,-37.61702 5.36969,-15.1952 13.79464,-28.23822 21.465,-41.72378 6.3007,-11.79302 13.45014,-22.82007 20.54727,-33.88832 3.45455,-5.83476 6.92982,-11.72617 11.07778,-16.85581 3.83882,-5.18463 7.22573,-10.77479 11.17518,-15.84313 4.23042,-5.10202 8.30926,-10.40271 12.95824,-14.93632 4.70927,-3.81715 8.69667,-8.7211 13.15653,-12.88611 7.0113,-6.67718 14.11199,-13.06678 21.57055,-18.97281 5.95788,-4.77199 11.9139,-9.53568 17.85573,-14.33766 128.16257,-90.326971 3.13794,-2.22762 4.9607,-3.45306 20.07021,-13.49308 35.98356,-26.654495 55.19421,-37.724058 -90.66923,65.873428 -17.82016,9.20445 9.30653,-6.835131 8.07463,-4.774404 -2.46783,2.125806 5.81195,-3.425132 -93.53714,67.246501 -8.4077,3.012004 22.75445,-13.777465 5.72134,-3.414867 11.31408,-6.782787 17.4887,-8.775328 5.48421,-0.583164 10.62893,-2.763969 16.10372,-3.731121 6.39675,-1.033116 12.50555,-3.673899 18.9322,-4.719297 3.1054,-1.116068 6.54063,-0.08872 9.65526,-0.84702 1.56832,-0.381851 3.0212,-1.296217 4.56498,-1.806758 6.08711,-1.624817 12.06209,-3.731521 18.1868,-5.324705 4.70111,-2.687051 9.44342,-4.793452 14.61591,-5.399928 3.40555,-0.393151 6.83676,-0.505145 10.25759,-0.512247 17.84128,0.449952 -4.80421,4.45515 -42.87298,29.352849 -0.53374,0.349074 0.85559,-1.076944 1.38185,-1.442714 46.47512,-32.301123 29.08111,-29.730588 48.57983,-32.294021 2.56728,0.02256 5.13834,-0.150016 7.70105,0.101558 0.41956,-0.0043 0.74095,0.162999 1.08839,0.395805 0,0 -43.0634,37.151247 -43.0634,37.151247 l 0,0 c -0.10096,0.03799 -0.35725,0.467824 -0.63964,0.24049 -2.27646,0.117401 -4.59129,0.212505 -6.75808,1.170451 -16.87291,8.68888 0.37499,-0.109458 42.0257,-29.853266 0.50553,-0.361 -1.13642,0.3911 -1.64857,0.737767 -33.80508,22.880174 -29.52351,31.786912 -48.25043,32.403781 -3.22414,0.125172 -6.45319,0.363935 -9.61679,1.193914 -4.87111,1.581711 -9.43478,4.303126 -14.38664,5.54185 -6.08274,1.72617 -12.08627,3.827337 -18.18532,5.47375 -4.74441,1.246528 -9.64757,1.004009 -14.4074,2.261955 -6.29585,1.58388 -12.48913,3.76883 -18.88252,4.740342 -5.28793,1.364166 -10.57569,2.801765 -15.79463,4.455279 -5.80163,2.565668 -11.18095,6.314593 -16.86419,9.233593 -3.95713,2.32764 -7.93059,4.61455 -11.86289,7.00515 -1.32962,0.80832 -5.25623,3.37653 -3.97785,2.45214 19.737,-14.271132 98.02983,-69.555012 -6.86898,4.63291 -4.40784,2.60033 -1.69018,0.93956 -5.78889,3.57091 -0.87525,0.56192 -3.4833,2.28622 -2.63051,1.67455 14.11268,-10.12289 28.26412,-20.16431 42.41331,-30.210269 0.75555,-0.536465 -1.48782,1.120805 -2.23171,1.681219 -15.66325,11.1744 -31.32651,22.3488 -46.98976,33.52322 -5.96706,3.7905 1.11504,-0.60713 -5.12368,2.94107 -0.88598,0.50387 -3.45713,2.22742 -2.6136,1.62381 14.0315,-10.04051 56.31208,-39.767096 42.18166,-29.93753 -5.0547,3.51621 -113.30054,80.31658 -4.99689,3.49114 -6.36359,4.09107 -11.9314,9.75445 -18.15297,14.14586 -7.31937,6.01192 -14.89693,11.31496 -21.4596,18.61138 -1.65746,1.39532 -3.5856,2.33589 -5.08285,3.98125 -0.68018,0.74743 -1.00298,1.88593 -1.62742,2.7033 -1.86056,2.43533 -4.46503,3.85902 -6.4966,6.0341 -4.71428,4.27483 -9.13646,8.76179 -13.12229,14.09301 -4.12319,4.8839 -8.03511,9.8412 -11.29948,15.61534 -3.7794,5.48095 -8.32658,10.2017 -11.4575,16.38989 -6.75566,11.47646 -14.87741,21.73645 -20.98845,33.82345 -7.36514,13.33142 -15.74336,25.86373 -21.68546,40.30242 -4.2324,12.61065 -8.04832,25.42535 -12.60231,37.88389 -5.63154,15.45943 -10.70176,31.23423 -15.34836,47.17869 -3.07053,11.86524 -5.45616,23.98564 -8.88337,35.71288 -3.66408,10.42592 -7.58779,20.72321 -9.55447,31.90512 -2.1557,14.15203 -3.8759,28.45635 -4.14152,42.87294 -0.38224,12.19134 -0.8664,24.42981 -3.38081,36.29935 -1.76488,9.66466 -2.97792,19.71109 -3.15603,29.59719 0.0503,9.914 0.0335,19.82995 -0.15448,29.7419 -0.23,8.96644 -0.77225,17.97028 -2.87223,26.61657 -2.26929,8.82553 -4.28721,17.70927 -6.43299,26.59148 -1.19254,11.34026 -1.31181,22.63411 -1.14759,34.0677 -0.0697,11.50847 -0.11451,23.03081 -0.78065,34.51573 -0.90601,10.35676 -2.79321,20.6278 -2.72804,31.06137 0.0251,11.36384 -6e-5,22.72783 0.008,34.09168 0.0294,10.83354 0.0173,21.66736 -0.004,32.5009 -0.0174,10.63294 0.0219,21.26565 0.0306,31.89852 0.007,7.76301 0.0192,15.52829 0.17954,23.28893 0.25584,7.07423 0.7689,14.11835 2.25836,20.98988 1.57447,7.48274 2.48956,15.10985 4.50389,22.45279 2.64371,8.61833 5.43653,17.14353 8.46976,25.56472 2.88713,7.86183 5.72521,15.72292 9.42027,23.09184 2.54881,6.21153 5.09555,12.35949 6.12941,19.27894 5.07149,22.7176 -41.5437,57.96129 -45.87721,34.5836 -0.93588,-4.93039 -1.85748,-9.86477 -2.79916,-14.79345 -1.94786,-10.19155 -3.13843,-20.53932 -5.36171,-30.65174 -0.98444,-6.87915 -3.19088,-13.2792 -4.19102,-20.15592 -2.34203,-9.7066 -5.61827,-18.98 -8.02015,-28.66386 -1.65016,-7.79983 -3.16241,-15.64893 -5.32964,-23.26458 -0.97139,-5.82512 -2.84903,-11.41762 -2.65518,-17.45199 -0.39686,-5.76683 -1.24755,-11.44167 -2.90882,-16.88346 -1.70773,-7.54123 -1.81022,-15.52733 -3.20862,-23.17463 -0.95952,-7.94011 -0.58605,-15.97637 -1.41965,-23.94748 -0.90797,-8.9591 -2.7169,-17.67216 -3.82324,-26.57265 -1.24455,-9.24217 -2.88723,-18.40065 -2.91022,-27.81702 -0.94669,-10.97988 -2.66581,-21.72451 -6.57788,-31.77318 -3.4924,-10.66896 -7.77623,-20.9219 -10.34906,-32.03202 -2.68677,-11.54763 -5.15501,-23.15409 -8.07479,-34.6165 -2.48692,-9.04298 -4.87824,-18.13604 -8.9026,-26.38977 -4.52462,-9.00001 -8.90072,-18.19242 -14.29454,-26.46047 -6.92422,-9.9401 -13.393,-20.32239 -18.91217,-31.5316 -4.26906,-7.98693 -8.45192,-15.93354 -13.62093,-23.11295 -4.45758,-7.21205 -8.7707,-14.55859 -13.36202,-21.6382 -5.4302,-7.62297 -11.48537,-14.53616 -17.37892,-21.61415 -5.63734,-6.38465 -11.52674,-12.36895 -18.51162,-16.45452 -7.86515,-5.70094 -15.79827,-11.39198 -22.7627,-18.70672 -6.00804,-5.63445 -11.93417,-11.40007 -18.05989,-16.83565 -6.14976,-4.8877 -12.4889,-9.47712 -19.19969,-13.11616 -5.03605,-2.80332 -10.27899,-5.13953 -14.987191,-8.7391 -4.495943,-3.22513 -8.660831,-6.92097 -12.975743,-10.47893 -5.847778,-4.10523 -12.414124,-6.53055 -18.771792,-9.13815 -12.252866,-3.78409 -24.715751,-5.89788 -37.34236,-6.67862 0,0 42.458575,-37.05043 42.458575,-37.05043 z" />
  </g>
</svg>
